# xmcd CD database file
#
# Track frame offsets:
#	150
#	9311
#	18332
#	34085
#	47771
#	58573
#	69336
#	80440
#	92666
#	101291
#	115808
#	127433
#	144047
#	153354
#	172706
#
# Disc length: 2367 seconds
#
# Revision: 0
# Processed by: cddbd v1.5.2PL0 Copyright (c) Steve Scherf et al.
# Submitted via: CDex 1.70beta2
#
DISCID=af093d0f
DTITLE=Colpitts, Ester - Cdn. - Kaleo
DYEAR=1900
DGENRE=Country
TTITLE0=Isaiah 25:1
TTITLE1=Take My Shame Away - Psalm 34:5
TTITLE2=March Prayer
TTITLE3=In the Waiting Hours - Psalm 34:15-18
TTITLE4=Shine
TTITLE5=Use Me
TTITLE6=Precious Saviour
TTITLE7=I Call - Psalm 86
TTITLE8=Rafters Ring
TTITLE9=He Chose To Say
TTITLE10=The Prodigal
TTITLE11=Glen's Song
TTITLE12=In God Alone - Psalm 62
TTITLE13=My Lord
TTITLE14=Heavenly Home
EXTD=
EXTT0=
EXTT1=
EXTT2=
EXTT3=
EXTT4=
EXTT5=
EXTT6=
EXTT7=
EXTT8=
EXTT9=
EXTT10=
EXTT11=
EXTT12=
EXTT13=
EXTT14=
PLAYORDER=
